<svg width="466" height="473" viewBox="0 0 466 473" fill="none" xmlns="http://www.w3.org/2000/svg">
<path d="M22.4347 158.479L23.9747 159.92C36.9606 172.022 55.5403 176.364 72.1726 170.462C74.3162 169.712 76.4017 168.806 78.4122 167.749C85.6545 163.802 91.8101 158.127 96.3321 151.228C100.854 144.33 103.603 136.422 104.334 128.206C105.129 118.508 103.192 108.155 107.424 99.4419C112.929 88.1152 126.54 83.9621 138.692 80.9814C150.843 78.0007 164.445 73.7682 169.91 62.4117C173.327 55.2978 172.642 46.7432 170.078 39.2318C163.312 19.3606 144.146 5.25194 123.709 1.32736C103.271 -2.59723 81.9791 2.5395 63.5087 12.0181C37.676 25.2921 15.8176 47.8461 6.75626 75.7354C-2.30506 103.625 2.74226 136.671 22.4347 158.479Z" fill="#F5F5F5"/>
<path d="M82.6554 255.633C85.1334 244.925 78.4617 234.236 67.7536 231.758C57.0455 229.28 46.356 235.952 43.878 246.66C41.3999 257.368 48.0717 268.057 58.7797 270.535C69.4878 273.013 80.1773 266.342 82.6554 255.633Z" fill="#F5F5F5"/>
<path d="M418.951 48.8637C422.912 33.6043 413.752 18.0234 398.493 14.0628C383.234 10.1023 367.653 19.2618 363.692 34.5212C359.732 49.7807 368.891 65.3616 384.151 69.3221C399.41 73.2827 414.991 64.1231 418.951 48.8637Z" fill="#F5F5F5"/>
<path d="M428.207 453.568C428.207 453.717 332.655 453.827 214.819 453.827C96.9819 453.827 1.41089 453.747 1.41089 453.568C1.41089 453.39 96.9421 453.31 214.819 453.31C332.695 453.31 428.207 453.459 428.207 453.568Z" fill="#263238"/>
<path d="M48.9927 421.029C48.9927 421.029 44.0249 386.691 44.4223 366.721C44.8197 346.75 44.4223 324.276 44.4223 324.276H46.6976C46.6976 324.276 45.1377 363.919 46.8367 387.864C48.5357 411.809 52.9968 421.059 52.9968 421.059H49.0225" fill="#263238"/>
<path d="M63.8763 285.656C63.5205 284.438 62.7948 283.362 61.7997 282.576C60.3392 281.652 58.4216 282.039 56.8319 282.576C49.877 285.03 43.7169 297.996 40.9349 304.812L50.1651 335.91C66.7676 320.5 69.6191 300.221 63.8763 285.656Z" fill="#455A64"/>
<path d="M61.2334 283.838C61.2334 283.838 61.2334 283.977 61.1042 284.245L60.6472 285.378C60.2498 286.371 59.6536 287.772 58.9979 289.541C57.6367 293.078 55.9079 298.016 54.3579 303.58C52.808 309.144 51.7548 314.26 51.0991 317.996C50.7712 319.854 50.5228 321.364 50.3638 322.418C50.2843 322.904 50.2247 323.302 50.175 323.62C50.1585 323.762 50.1251 323.902 50.0757 324.037C50.0581 323.895 50.0581 323.752 50.0757 323.61C50.0757 323.292 50.1452 322.885 50.2048 322.398C50.3141 321.345 50.5228 319.824 50.8208 317.947C52.3884 308.176 55.0548 298.613 58.7694 289.441C59.4847 287.693 60.0908 286.282 60.5379 285.318L61.0546 284.215C61.0975 284.082 61.1576 283.955 61.2334 283.838Z" fill="#263238"/>
<path d="M45.9722 343.412C37.3183 338.633 32.2213 329.641 31.7444 319.765C31.4165 312.86 33.5328 306.093 35.9372 299.615C36.0882 299.025 36.4394 298.505 36.9308 298.145C37.3246 298.006 37.7467 297.966 38.1595 298.031C38.5722 298.095 38.9625 298.26 39.2955 298.512C45.5847 302.099 49.3901 308.925 51.4169 315.87C52.8789 320.475 53.3695 325.333 52.8576 330.138C52.0669 335.185 49.6656 339.841 46.012 343.412" fill="#455A64"/>
<path d="M45.9723 343.412C45.9599 343.273 45.9599 343.133 45.9723 342.994C45.9723 342.676 45.9723 342.289 45.9723 341.802C45.9723 340.809 45.9723 339.269 45.8431 337.42C45.6037 332.603 45.0695 327.805 44.2435 323.054C43.2499 317.48 42.1172 312.492 41.2628 308.885C40.8355 307.117 40.4878 305.676 40.2692 304.613L39.9413 303.451C39.9016 303.315 39.8783 303.175 39.8718 303.033C39.9301 303.161 39.9766 303.294 40.0109 303.431C40.1003 303.729 40.2096 304.116 40.3487 304.573C40.6368 305.567 41.0243 307.027 41.4913 308.816C42.4153 312.412 43.6274 317.4 44.5912 322.984C45.4206 327.753 45.9219 332.573 46.0915 337.411C46.0915 339.259 46.0915 340.769 46.0915 341.802C46.0915 342.289 46.0915 342.676 46.0915 342.994C46.0743 343.139 46.0341 343.28 45.9723 343.412V343.412Z" fill="#263238"/>
<g opacity="0.3">
<path d="M45.9722 343.412C37.3183 338.633 32.2213 329.641 31.7444 319.765C31.4165 312.86 33.5328 306.093 35.9372 299.615C36.0882 299.025 36.4394 298.505 36.9308 298.145C37.3246 298.006 37.7467 297.966 38.1595 298.031C38.5722 298.095 38.9625 298.26 39.2955 298.512C45.5847 302.099 49.3901 308.925 51.4169 315.87C52.8789 320.475 53.3695 325.333 52.8576 330.138C52.0669 335.185 49.6656 339.841 46.012 343.412" fill="black"/>
</g>
<path d="M55.739 395.942C64.2539 397.809 71.2585 403.82 79.4753 406.742C84.9101 408.669 91.0602 409.355 95.3723 413.15C94.3788 410.527 91.8551 408.768 89.4606 407.278C82.6988 403.051 75.4791 399.604 67.94 397.005C64.075 395.663 59.8822 394.551 55.9477 395.653" fill="#455A64"/>
<path d="M43.4288 403.522C32.7579 403.354 21.5703 394.272 10.9193 393.736C22.0274 390.149 37.9343 393.08 43.4288 403.522Z" fill="#455A64"/>
<path d="M47.5917 377.948C53.0887 376.143 58.9502 375.743 64.6413 376.785C70.3047 377.827 75.8714 379.339 81.2835 381.306C80.7371 377.61 77.7365 374.828 74.9247 372.364C72.8656 370.442 70.6264 368.721 68.238 367.227C65.8393 365.724 63.0607 364.938 60.2299 364.962C58.5307 365.075 56.8714 365.527 55.3506 366.294C53.8298 367.06 52.4786 368.124 51.3772 369.423C49.2219 371.777 47.8929 374.77 47.5917 377.948" fill="#455A64"/>
<path d="M25.7035 366.135C18.987 360.402 8.81292 360.958 0 361.167C14.1766 367.926 27.5479 376.258 39.8618 386.006C40.2195 379.806 34.1886 373.407 25.7035 366.135Z" fill="#455A64"/>
<g opacity="0.3">
<path d="M25.7035 366.135C18.987 360.402 8.81292 360.958 0 361.167C14.1766 367.926 27.5479 376.258 39.8618 386.006C40.2195 379.806 34.1886 373.407 25.7035 366.135Z" fill="black"/>
</g>
<path d="M50.6122 358.256C53.8896 355.998 57.3416 354.004 60.9353 352.294C64.4625 350.695 67.7611 348.141 71.179 346.333C75.6004 343.928 79.4355 340.6 83.4992 337.629C87.5629 334.658 92.0141 331.976 96.9918 331.191C92.8988 330.464 88.6922 330.709 84.7114 331.906C80.7488 333.072 76.8849 334.551 73.1562 336.328C67.9102 338.692 62.5847 341.107 58.2527 344.932C53.9208 348.757 50.1055 352.543 50.5625 358.265" fill="#455A64"/>
<path d="M79.2865 403.522C79.1682 403.491 79.0546 403.444 78.9487 403.383L78.0147 402.897C77.2099 402.469 76.0276 401.833 74.6068 401.108C73.8914 400.731 73.0867 400.333 72.2222 399.926C71.3578 399.518 70.4438 399.081 69.4601 398.654C67.3397 397.707 65.1427 396.943 62.8927 396.369C60.6594 395.75 58.3081 395.692 56.047 396.2C55.0615 396.41 54.0946 396.699 53.1557 397.064C52.3389 397.392 51.554 397.795 50.8109 398.266C49.7187 398.945 48.7171 399.76 47.8302 400.691C47.2142 401.356 46.9162 401.754 46.8367 401.734C46.8911 401.626 46.9542 401.523 47.0254 401.426C47.2266 401.137 47.4422 400.859 47.6713 400.591C48.5139 399.608 49.4905 398.749 50.5725 398.038C51.3224 397.541 52.1174 397.115 52.9471 396.766C53.9002 396.389 54.8798 396.084 55.8781 395.852C58.1923 395.318 60.6033 395.369 62.8927 396.001C65.1645 396.578 67.3793 397.359 69.5098 398.336C70.5034 398.773 71.4274 399.2 72.2719 399.648C73.1165 400.095 73.9312 400.472 74.6366 400.87C76.0773 401.635 77.2199 402.3 77.9949 402.767L78.8891 403.314C79.029 403.368 79.1623 403.438 79.2865 403.522Z" fill="#263238"/>
<path d="M35.4703 398.237C35.6997 398.275 35.9233 398.341 36.136 398.435C36.7306 398.651 37.3112 398.903 37.8747 399.191C39.7426 400.138 41.4601 401.357 42.9717 402.807C44.4854 404.262 45.7716 405.937 46.787 407.775C47.1001 408.322 47.3756 408.89 47.6117 409.474C47.7163 409.684 47.7899 409.908 47.8303 410.14C47.7706 410.14 47.3732 409.265 46.5486 407.904C45.476 406.145 44.1839 404.529 42.7035 403.095C41.2108 401.672 39.5412 400.446 37.7356 399.449C36.3645 398.664 35.4405 398.306 35.4703 398.237Z" fill="#263238"/>
<path d="M11.8731 365.638C12.0311 365.657 12.1852 365.701 12.3301 365.767L13.6118 366.224L15.599 366.969C16.3839 367.257 17.2384 367.694 18.2021 368.122C23.2159 370.429 27.8948 373.404 32.112 376.964C34.4102 378.941 36.5713 381.073 38.5801 383.343C40.2162 385.2 41.7518 387.144 43.1803 389.165C44.3925 390.884 45.3165 392.325 45.9524 393.318L46.6777 394.461C46.7706 394.588 46.8505 394.725 46.9161 394.868C46.8048 394.756 46.7049 394.633 46.6181 394.501C46.4293 394.252 46.161 393.885 45.8232 393.398C45.1575 392.404 44.2037 391.013 42.9618 389.314C41.7198 387.615 40.1599 385.658 38.3218 383.572C36.3024 381.333 34.1455 379.223 31.8636 377.252C27.6634 373.719 23.033 370.731 18.0829 368.36C17.0893 367.923 16.2845 367.476 15.5096 367.168L13.5224 366.363L12.2606 365.846L11.8731 365.638Z" fill="#263238"/>
<path d="M63.5882 371.947C63.303 371.949 63.0189 371.912 62.7436 371.838L61.7501 371.659C61.3725 371.589 60.9254 371.589 60.4386 371.53C57.9095 371.308 55.3695 371.811 53.116 372.98C51.8791 373.623 50.7522 374.458 49.7776 375.454C48.9634 376.254 48.2434 377.144 47.6315 378.107C47.0802 379.002 46.5922 379.935 46.171 380.899C46.207 380.615 46.2805 380.338 46.3895 380.074C46.6477 379.34 46.9807 378.634 47.3831 377.968C47.9769 376.964 48.6909 376.037 49.5093 375.206C50.4996 374.173 51.6505 373.307 52.9173 372.642C55.2315 371.435 57.8572 370.957 60.4485 371.271C60.9353 371.331 61.3824 371.361 61.7699 371.45L62.7635 371.698C63.0464 371.752 63.3228 371.835 63.5882 371.947Z" fill="#263238"/>
<path d="M74.3087 338.702C74.1844 338.803 74.0474 338.886 73.9014 338.951L72.719 339.596C71.7255 340.153 70.1954 340.978 68.3871 342.041C66.5788 343.104 64.4625 344.445 62.2071 346.065C59.743 347.782 57.4356 349.713 55.3118 351.837C54.2147 352.927 53.2659 354.156 52.4901 355.494C51.7846 356.835 51.1189 358.126 50.5029 359.378C49.392 361.573 48.397 363.825 47.5222 366.125C46.9459 367.677 46.4648 369.263 46.0816 370.874C45.8133 372.007 45.7139 372.652 45.6742 372.652C45.6584 372.494 45.6584 372.334 45.6742 372.175C45.6742 371.867 45.7835 371.42 45.9027 370.834C46.2308 369.201 46.6757 367.594 47.2341 366.025C48.0882 363.688 49.0768 361.402 50.1949 359.18C50.801 357.928 51.4667 356.626 52.1821 355.285C52.9691 353.912 53.9383 352.652 55.0634 351.539C57.2013 349.398 59.5292 347.456 62.0184 345.737C64.3036 344.127 66.4497 342.826 68.2679 341.762C70.0861 340.699 71.6063 339.934 72.6694 339.418L73.8915 338.831C74.0257 338.774 74.1656 338.731 74.3087 338.702V338.702Z" fill="#263238"/>
<path d="M44.4024 370.993C44.3048 370.699 44.235 370.396 44.1938 370.089C44.0745 369.433 43.9156 368.609 43.7268 367.625C43.2243 364.922 42.5607 362.251 41.7397 359.627C40.8815 357.011 39.8662 354.45 38.6994 351.956L37.7058 349.671C37.5617 349.4 37.4484 349.113 37.368 348.817C37.5526 349.06 37.7092 349.323 37.835 349.602C38.1231 350.128 38.5205 350.883 38.9875 351.837C40.2277 354.314 41.2869 356.878 42.157 359.508C42.9948 362.146 43.6358 364.842 44.0745 367.575C44.2435 368.628 44.3627 369.483 44.4223 370.069C44.4553 370.377 44.4486 370.687 44.4024 370.993V370.993Z" fill="#263238"/>
<path d="M43.6374 346.73C43.3011 342.691 42.1197 338.768 40.1698 335.215C37.5395 330.326 33.8697 326.072 29.4186 322.754C24.9675 319.436 19.8434 317.134 14.4067 316.009L38.2522 351.549L41.3323 357.898C43.4386 354.45 43.9156 350.754 43.6374 346.73Z" fill="#455A64"/>
<path d="M77.8458 416.776H22.395V426.603H77.8458V416.776Z" fill="#FF9F1C"/>
<path d="M26.5282 424.656L31.2576 455.158H68.0691L73.7027 424.656H26.5282Z" fill="#FF9F1C"/>
<path d="M77.816 426.623C77.816 426.722 65.307 426.812 49.877 426.812C34.4469 426.812 21.9379 426.722 21.9379 426.623C21.9379 426.523 34.4469 426.424 49.877 426.424C65.307 426.424 77.816 426.514 77.816 426.623Z" fill="#263238"/>
<path d="M289.127 388.967H280.891V453.558H289.127V388.967Z" fill="#263238"/>
<path d="M359.69 388.4H351.454V452.992H359.69V388.4Z" fill="#263238"/>
<path d="M387.182 450.995H257.582V455.009H387.182V450.995Z" fill="#263238"/>
<path d="M382.403 49.1874H250.08V389.95H382.403V49.1874Z" fill="#455A64"/>
<path d="M391.951 49.1874H382.403V389.95H391.951V49.1874Z" fill="#263238"/>
<path d="M376.054 56.5994H258.724V384.208H376.054V56.5994Z" fill="#F5F5F5"/>
<path d="M372.299 104.032C372.16 104.032 372.04 95.0105 372.04 83.8925C372.04 72.7745 372.16 63.7529 372.299 63.7529C372.438 63.7529 372.557 72.7646 372.557 83.8925C372.557 95.0204 372.448 104.032 372.299 104.032Z" fill="#263238"/>
<path d="M279.609 142.096C279.609 142.096 272.018 149.219 270.279 156.343C268.541 163.467 263.325 207.939 264.318 214.675C265.312 221.412 272.803 258.184 272.803 258.184L279.828 243.171L280.682 209.32L286.345 175.946V156.582L279.609 142.096Z" fill="#FFCAAE"/>
<path d="M359.303 252.56L276.976 243.171L272.187 259.575L281.01 384.207H313.231L318.954 279.068L337.633 357.481L336.928 384.207H368.364L371.434 355.613C371.434 355.613 359.77 252.451 359.303 252.56Z" fill="#263238"/>
<path d="M331.463 78.7658L336.719 123.705C337.762 131.365 339.283 142.712 327.101 143.814C316.45 143.983 312.427 134.386 311.443 127.242C310.986 123.844 310.588 121.022 310.519 120.674C310.519 120.674 298.904 121.171 296.52 109.934C295.367 104.499 293.897 93.1228 292.694 82.8096C292.071 77.47 293.482 72.0916 296.645 67.7448C299.808 63.398 304.491 60.4015 309.764 59.3515L310.857 59.1329C322.71 57.5134 330.132 66.8629 331.463 78.7658Z" fill="#FFCAAE"/>
<path d="M310.489 120.724C315.69 119.676 320.481 117.155 324.29 113.461C324.29 113.461 322.362 122.403 310.916 123.635L310.489 120.724Z" fill="#FF935C"/>
<path d="M312.784 88.2841C312.862 88.6814 313.09 89.0331 313.422 89.2648C313.754 89.4966 314.163 89.5903 314.563 89.5261C314.759 89.5017 314.949 89.4384 315.12 89.3399C315.292 89.2414 315.442 89.1097 315.563 88.9524C315.683 88.7952 315.771 88.6156 315.821 88.4241C315.871 88.2325 315.882 88.033 315.854 87.837C315.777 87.4397 315.548 87.088 315.216 86.8563C314.884 86.6245 314.475 86.5309 314.076 86.5951C313.879 86.6182 313.688 86.6806 313.516 86.7787C313.344 86.8768 313.193 87.0086 313.072 87.1661C312.952 87.3237 312.864 87.5038 312.815 87.6959C312.765 87.8879 312.755 88.088 312.784 88.2841V88.2841Z" fill="#263238"/>
<path d="M309.277 98.9451C308.308 98.8433 307.33 98.8634 306.366 99.0048C305.909 99.0048 305.472 99.0048 305.372 98.7564C305.233 98.3099 305.233 97.8317 305.372 97.3852C305.581 96.2327 305.789 95.0206 306.008 93.7587C306.872 88.6021 307.399 84.3994 307.19 84.3695C306.982 84.3397 306.117 88.4829 305.203 93.6395C305.005 94.9113 304.816 96.1135 304.627 97.276C304.46 97.8648 304.503 98.4931 304.746 99.0544C304.841 99.1978 304.968 99.3178 305.116 99.4055C305.263 99.4933 305.429 99.5464 305.601 99.5611C305.858 99.5939 306.118 99.5939 306.376 99.5611C307.365 99.4792 308.34 99.2723 309.277 98.9451V98.9451Z" fill="#263238"/>
<path d="M312.307 77.8617C312.546 78.2591 314.026 77.7524 315.864 77.6133C317.702 77.4742 319.252 77.6928 319.411 77.2655C319.481 77.0569 319.153 76.7091 318.477 76.4111C317.607 76.0405 316.657 75.8937 315.715 75.9838C314.776 76.0541 313.868 76.3544 313.072 76.8582C312.466 77.2655 312.178 77.6629 312.307 77.8617Z" fill="#263238"/>
<path d="M332.218 87.4496C332.407 87.3205 339.968 83.6244 341.111 91.7915C342.253 99.9586 333.818 99.4221 333.768 99.1936C333.719 98.9651 332.218 87.4496 332.218 87.4496Z" fill="#FFCAAE"/>
<path d="M335.835 95.7458C335.835 95.7458 335.984 95.8253 336.242 95.9048C336.603 95.9985 336.987 95.9524 337.315 95.7756C338.13 95.3385 338.667 93.868 338.498 92.3876C338.424 91.6815 338.19 91.0017 337.812 90.4004C337.702 90.1543 337.533 89.9393 337.32 89.7745C337.107 89.6098 336.856 89.5006 336.59 89.4566C336.42 89.435 336.249 89.474 336.105 89.5667C335.961 89.6594 335.855 89.7999 335.805 89.9633C335.726 90.2017 335.805 90.3607 335.805 90.3806C335.805 90.4004 335.606 90.2713 335.626 89.9235C335.641 89.7147 335.729 89.5178 335.875 89.3671C336.076 89.1681 336.347 89.0543 336.63 89.0492C336.976 89.0641 337.312 89.1692 337.604 89.3539C337.897 89.5386 338.137 89.7966 338.299 90.1024C338.745 90.7647 339.024 91.5247 339.114 92.318C339.283 93.9673 338.657 95.6266 337.524 96.1333C337.316 96.2329 337.089 96.2846 336.858 96.2846C336.628 96.2846 336.4 96.2329 336.193 96.1333C335.875 95.9445 335.805 95.7657 335.835 95.7458Z" fill="#FF935C"/>
<path d="M309.654 104.4C309.654 104.191 311.194 103.973 312.486 102.711C313.024 102.153 313.488 101.528 313.867 100.853C314.185 100.326 314.404 99.9983 314.483 100.038C314.563 100.078 314.483 100.455 314.265 101.032C313.978 101.829 313.516 102.552 312.913 103.148C312.301 103.749 311.534 104.169 310.698 104.36C310.072 104.519 309.664 104.469 309.654 104.4Z" fill="#263238"/>
<path d="M296.341 90.9172C296.416 91.3137 296.643 91.6653 296.973 91.8972C297.303 92.1291 297.711 92.2231 298.109 92.1591C298.306 92.1347 298.495 92.0714 298.667 91.9729C298.839 91.8744 298.989 91.7427 299.109 91.5855C299.23 91.4282 299.317 91.2486 299.367 91.0571C299.417 90.8656 299.429 90.666 299.401 90.47C299.326 90.0735 299.099 89.7219 298.769 89.49C298.438 89.2581 298.031 89.1641 297.632 89.2281C297.435 89.2512 297.245 89.3137 297.073 89.4118C296.9 89.5099 296.749 89.6416 296.629 89.7991C296.508 89.9567 296.421 90.1368 296.371 90.3289C296.322 90.5209 296.311 90.721 296.341 90.9172V90.9172Z" fill="#263238"/>
<path d="M322.551 59.7092C324.538 57.5532 327.857 57.1557 330.698 57.9108H330.758C333.897 58.6063 336.004 61.5672 337.276 64.5181L337.474 65.0148C338.687 66.4918 340.233 67.6598 341.985 68.4228C342.303 68.5519 342.661 68.7208 342.74 69.0487C342.749 69.2163 342.716 69.3835 342.643 69.5346C342.57 69.6858 342.46 69.816 342.323 69.9131C341.657 70.5204 340.862 70.9688 339.998 71.2246C340.356 71.9225 340.775 72.5874 341.25 73.2117C341.667 73.7483 342.154 74.3842 341.935 75.02C341.824 75.2566 341.644 75.4542 341.419 75.5871C341.194 75.72 340.934 75.7821 340.674 75.7652C340.157 75.7166 339.656 75.561 339.203 75.3082L340.505 77.5834C339.435 77.9023 338.306 77.9703 337.206 77.7821C337.02 80.7071 336.672 83.6194 336.163 86.5056C334.911 86.6646 333.679 86.5056 332.993 87.3104C332.059 88.3835 331.811 90.2216 330.013 89.7645C329.079 89.536 328.025 87.7774 327.628 86.8931C324.892 81.0981 323.438 74.7811 323.366 68.3731C321.949 67.1987 320.32 66.3082 318.567 65.7501L318.716 65.8494C315.407 65.144 311.681 64.5081 308.86 66.376C306.664 67.8167 305.591 70.4198 304.09 72.5659C302.789 74.5388 301.09 76.2181 299.102 77.4962C297.114 78.7742 294.88 79.6229 292.545 79.9879C292.545 83.4653 293.439 87.7675 293.668 90.9866L290.071 86.1976C289.814 85.8566 289.575 85.5017 289.356 85.1345L289.276 85.0352C288.931 84.4469 288.557 83.8766 288.154 83.3262V83.3262C287.843 83.761 287.372 84.0545 286.845 84.1421C286.317 84.2296 285.777 84.1042 285.342 83.7932C284.907 83.4823 284.614 83.0113 284.526 82.484C284.438 81.9567 284.564 81.4162 284.875 80.9814C285.096 80.5739 285.381 80.2048 285.719 79.8885C285.374 80.3173 284.923 80.6496 284.412 80.8533C283.9 81.0569 283.344 81.125 282.798 81.051C282.259 80.9537 281.765 80.6826 281.394 80.279C281.023 79.8754 280.794 79.3614 280.742 78.8155C280.745 78.4498 280.843 78.0912 281.026 77.7745C281.209 77.4577 281.47 77.1934 281.785 77.0072C280.389 77.2877 278.942 77.153 277.622 76.6197C276.767 76.262 275.893 75.6261 276.032 74.563C276.12 74.0903 276.382 73.6681 276.767 73.3807C277.625 72.8601 278.606 72.5756 279.609 72.556C282.077 72.1987 284.432 71.2848 286.494 69.8833C285.677 69.6015 284.909 69.1924 284.219 68.6712C283.499 68.1433 282.934 67.431 282.584 66.6092C282.235 65.7874 282.113 64.8865 282.232 64.0014C282.249 63.8349 282.305 63.6747 282.395 63.5333C282.484 63.392 282.605 63.2733 282.749 63.1867C283.236 62.9681 283.742 63.4053 284.14 63.753C284.661 64.3056 285.323 64.7071 286.054 64.9152C286.785 65.1233 287.558 65.1303 288.293 64.9353C289.326 64.745 290.301 64.3201 291.144 63.6934L291.224 63.5742C291.572 63.1072 291.919 62.6601 292.217 62.2329C294.781 58.974 296.48 57.3843 298.934 56.0231H320.584L322.551 59.7092Z" fill="#263238"/>
<path d="M319.133 61.4579C319.582 61.7221 320.008 62.0246 320.405 62.362C321.436 63.3343 322.199 64.556 322.62 65.9091C322.931 66.8354 323.148 67.7907 323.266 68.7606C323.405 69.8138 323.455 70.9365 323.525 72.1288C323.576 73.3804 323.702 74.6279 323.902 75.8646C324.017 76.5396 324.187 77.2041 324.409 77.8517C324.592 78.5356 324.952 79.1592 325.452 79.66C325.673 79.8488 325.939 79.978 326.224 80.0354C326.509 80.0928 326.805 80.0764 327.082 79.9879C327.627 79.8163 328.1 79.4664 328.423 78.9943C328.924 78.082 329.177 77.0543 329.158 76.0136L328.92 76.0732C329.367 76.8877 329.933 77.631 330.599 78.2789C331.235 78.8863 332.084 79.2214 332.963 79.2129C333.37 79.2023 333.766 79.0785 334.106 78.8552C334.42 78.6402 334.663 78.3355 334.802 77.9809C334.925 77.6653 334.966 77.3232 334.921 76.9873C334.864 76.6619 334.696 76.3665 334.444 76.1527L334.335 76.2719C335.123 76.9156 336.037 77.3892 337.017 77.6629C337.278 77.7447 337.543 77.8111 337.812 77.8616C337.904 77.8747 337.998 77.8747 338.09 77.8616C338.003 77.8272 337.914 77.8006 337.822 77.7822C337.558 77.7232 337.299 77.6434 337.047 77.5437C336.099 77.2093 335.228 76.6891 334.484 76.0136L334.374 76.1328C334.592 76.3474 334.737 76.6248 334.789 76.926C334.84 77.2273 334.796 77.5371 334.662 77.812C334.536 78.1298 334.318 78.4029 334.037 78.5969C333.724 78.7946 333.363 78.9013 332.993 78.9049C332.175 78.9017 331.389 78.5853 330.797 78.0206C330.158 77.379 329.612 76.6497 329.178 75.8546L328.969 75.5069V75.9143C328.994 76.9223 328.755 77.9192 328.274 78.8055C327.981 79.2239 327.558 79.5345 327.072 79.6898C326.83 79.7706 326.572 79.7865 326.323 79.736C326.073 79.6854 325.842 79.5701 325.651 79.4017C325.18 78.9334 324.838 78.3516 324.657 77.7126C324.445 77.0964 324.279 76.4655 324.16 75.8248C323.957 74.5983 323.828 73.3608 323.773 72.1188C323.703 70.9266 323.634 69.7939 323.485 68.7308C323.355 67.7496 323.125 66.7841 322.799 65.8494C322.363 64.4712 321.559 63.238 320.474 62.2825C320.076 61.9352 319.623 61.6566 319.133 61.4579V61.4579Z" fill="#455A64"/>
<path d="M285.352 76.8979L285.451 76.9674L285.759 77.1364C285.927 77.2345 286.103 77.3176 286.286 77.3847C286.524 77.4949 286.77 77.5879 287.021 77.6629C288.629 78.1621 290.336 78.2543 291.989 77.9312C294.453 77.4576 296.727 76.2809 298.536 74.5431C300.711 72.3999 302.428 69.8378 303.584 67.0119C304.23 65.5415 304.726 64.0312 305.313 62.6502C305.831 61.2978 306.541 60.0264 307.419 58.8746C308.195 57.8386 309.221 57.015 310.4 56.4801C310.94 56.2517 311.514 56.1108 312.099 56.0628C312.641 56.0281 313.185 56.0649 313.718 56.1721C315.344 56.5164 316.783 57.4554 317.752 58.8051C318.08 59.3154 318.346 59.8622 318.547 60.4345C318.547 60.4345 318.547 60.4345 318.547 60.3153C318.547 60.1961 318.487 60.1067 318.448 59.9775C318.303 59.5446 318.106 59.1309 317.861 58.7455C316.905 57.3346 315.443 56.3456 313.778 55.9834C313.226 55.8691 312.662 55.8257 312.099 55.8542C311.491 55.903 310.895 56.0437 310.33 56.2715C309.1 56.8097 308.027 57.6506 307.21 58.7157C306.307 59.8809 305.58 61.1732 305.054 62.5508C304.458 63.9517 303.961 65.4421 303.316 66.9126C302.173 69.703 300.484 72.2366 298.348 74.3643C296.577 76.0786 294.354 77.2508 291.939 77.7424C290.312 78.0758 288.629 78.0145 287.031 77.5636C285.938 77.2158 285.352 76.8582 285.352 76.8979Z" fill="#455A64"/>
<path d="M283.703 72.0393C283.842 72.1355 283.992 72.2155 284.15 72.2778C284.564 72.4642 284.993 72.617 285.431 72.7348C286.08 72.9257 286.745 73.0554 287.418 73.1223C288.245 73.2021 289.076 73.2021 289.902 73.1223C290.73 73.0431 291.548 72.8868 292.347 72.6553C292.992 72.4579 293.62 72.2087 294.224 71.9101C294.634 71.7061 295.029 71.4737 295.407 71.2146C295.665 71.0358 295.804 70.9265 295.794 70.9066C295.784 70.8868 295.178 71.2643 294.145 71.7313C293.54 72.005 292.916 72.2341 292.277 72.4168C291.492 72.6302 290.691 72.7797 289.883 72.864C289.072 72.9286 288.258 72.9286 287.448 72.864C286.779 72.8011 286.115 72.6915 285.461 72.5361C284.358 72.2778 283.722 72.0393 283.703 72.0393Z" fill="#455A64"/>
<path d="M320.127 89.1683L307.498 91.5231C307.498 91.5231 307.389 96.5605 310.479 98.7264C313.569 100.892 318.229 98.3787 319.421 95.8749C320.267 93.7465 320.511 91.4262 320.127 89.1683V89.1683Z" fill="#455A64"/>
<path d="M303.663 92.2385L291.035 94.5933C291.035 94.5933 290.926 99.6306 294.016 101.797C297.106 103.963 301.775 101.449 302.958 98.9451C303.81 96.818 304.054 94.4962 303.663 92.2385V92.2385Z" fill="#455A64"/>
<path d="M307.528 91.5232L303.445 92.2882V93.5103C304.104 93.0487 304.861 92.7442 305.657 92.6202C306.452 92.4962 307.266 92.556 308.035 92.795L307.528 91.5232Z" fill="#455A64"/>
<path d="M318.914 90.4104L309.088 92.2485C309.088 92.2485 308.999 96.1631 311.383 97.8522C313.768 99.5413 317.424 97.5839 318.338 95.6366C319.009 93.9812 319.209 92.1722 318.914 90.4104V90.4104Z" fill="#263238"/>
<path d="M302.242 93.5302L292.406 95.3683C292.406 95.3683 292.317 99.2829 294.701 100.972C297.086 102.661 300.742 100.704 301.656 98.7563C302.325 97.1005 302.528 95.293 302.242 93.5302V93.5302Z" fill="#263238"/>
<path d="M320.127 89.1685L332.497 87.8768C332.414 88.2677 332.25 88.6369 332.015 88.9604C331.781 89.2839 331.481 89.5545 331.135 89.7547L320.127 92.1094V89.1685Z" fill="#455A64"/>
<path d="M309.734 93.1526C309.664 93.1526 309.645 93.56 309.734 94.1462C309.904 94.9886 310.272 95.7785 310.807 96.4512C311.352 97.1458 312.115 97.636 312.973 97.8422C313.639 97.9813 314.046 97.8422 314.036 97.7826C314.026 97.723 313.649 97.6634 313.092 97.4448C312.374 97.1534 311.742 96.6852 311.254 96.0836C310.191 94.7026 309.933 93.093 309.734 93.1526Z" fill="white"/>
<path d="M292.466 95.1895C292.396 95.1895 292.317 95.6465 292.466 96.3718C292.627 97.3271 293.011 98.2311 293.586 99.0111C294.16 99.7911 294.91 100.425 295.774 100.863C296.44 101.181 296.897 101.23 296.917 101.161C295.846 100.475 294.881 99.6346 294.055 98.667C292.744 96.9779 292.645 95.1696 292.466 95.1895Z" fill="white"/>
<path d="M312.277 85.1345C312.516 85.3431 313.738 84.2204 315.606 84.0515C317.474 83.8826 318.934 84.7072 319.113 84.4489C319.203 84.3396 318.944 83.9422 318.308 83.5547C317.45 83.0535 316.455 82.8378 315.467 82.9387C314.491 83.0297 313.571 83.434 312.844 84.0912C312.317 84.5979 312.178 85.0351 312.277 85.1345Z" fill="#263238"/>
<path d="M295.774 84.8961C295.993 85.224 297.424 84.7471 299.192 84.5782C300.961 84.4093 302.441 84.5782 302.61 84.1807C302.68 84.0019 302.372 83.7138 301.736 83.4852C300.88 83.21 299.976 83.1219 299.083 83.2269C298.18 83.3132 297.306 83.591 296.52 84.0416C295.933 84.3894 295.675 84.7371 295.774 84.8961Z" fill="#263238"/>
<path d="M295.715 88.0358C295.953 88.2444 297.175 87.1217 299.043 86.9528C300.911 86.7839 302.372 87.6085 302.55 87.3502C302.64 87.2409 302.382 86.8435 301.746 86.456C300.886 85.9593 299.892 85.7439 298.904 85.84C297.928 85.931 297.008 86.3353 296.281 86.9925C295.755 87.4992 295.596 87.9364 295.715 88.0358Z" fill="#263238"/>
<path d="M337.196 120.456L362.154 127.798L360.167 195.599L360.624 241.303L361.479 252.52C361.479 252.52 347.042 259.475 325.154 259.207C303.266 258.939 275.694 246.996 275.694 246.996C275.694 246.996 282.312 219.663 283.186 214.695C284.06 209.728 285.352 181.769 285.352 181.769V174.118L285.719 132.766L309.684 124.698C309.684 124.698 314.751 132.647 321.875 132.12C333.768 131.196 337.196 120.456 337.196 120.456Z" fill="#FF9F1C"/>
<path d="M286.345 132.567C282.576 134.186 279.253 136.691 276.659 139.868C274.064 143.046 272.274 146.802 271.442 150.819C269.743 159.175 266.573 176.115 266.573 176.115C272.991 179.688 280.176 181.661 287.518 181.868L286.345 132.567Z" fill="#FF9F1C"/>
<path d="M366.516 130.312C366.516 130.312 378.23 135.896 373.571 157.138C370.053 173.174 365.821 183.13 359.581 196.96C354.882 207.383 347.132 207.591 341.697 206.29C335.805 204.889 291.095 175.837 291.095 175.837L297.165 162.712L339.163 180.944L352.08 146.755C352.08 146.755 359.392 126.685 366.516 130.312Z" fill="#FFCAAE"/>
<path d="M362.154 127.798C363.555 128.305 377.515 133.203 375.707 147.918C374.047 161.51 369.934 183.16 369.934 183.16C364.437 182.303 359.017 181.004 353.729 179.275C348.934 177.582 344.55 174.897 340.862 171.396L355.329 129.835L362.154 127.798Z" fill="#FF9F1C"/>
<path d="M369.934 183.16C369.727 183.168 369.521 183.151 369.318 183.11L367.579 182.872C366.069 182.673 363.903 182.275 361.24 181.679C358.124 180.969 355.062 180.036 352.08 178.887C348.377 177.513 344.946 175.494 341.945 172.926C341.462 172.49 341.023 172.007 340.634 171.485L340.554 171.386L340.604 171.257C343.217 163.865 345.572 157.257 347.271 152.379L349.328 146.746L349.904 145.235C349.958 145.053 350.038 144.879 350.142 144.719C350.12 144.906 350.073 145.09 350.003 145.265C349.874 145.672 349.715 146.179 349.506 146.815L347.609 152.498L341.091 171.376V171.147C341.461 171.636 341.877 172.089 342.333 172.499C345.282 175.008 348.644 176.988 352.268 178.351C355.224 179.517 358.254 180.483 361.34 181.242C363.973 181.868 366.129 182.325 367.629 182.583L369.348 182.921C369.552 182.977 369.749 183.057 369.934 183.16Z" fill="#263238"/>
<path d="M287.448 147.213C287.475 147.427 287.475 147.644 287.448 147.858C287.448 148.345 287.399 148.961 287.349 149.726C287.26 151.405 287.13 153.701 286.971 156.562C286.663 162.404 286.256 170.353 285.809 179.146C285.362 187.939 284.905 195.957 284.497 201.729C284.289 204.611 284.1 206.946 283.941 208.565C283.862 209.32 283.802 209.936 283.742 210.413C283.732 210.631 283.699 210.848 283.643 211.059C283.617 210.841 283.617 210.621 283.643 210.403C283.643 209.926 283.703 209.31 283.742 208.545C283.842 206.866 283.971 204.571 284.13 201.7C284.428 195.867 284.835 187.909 285.292 179.116C285.749 170.323 286.196 162.315 286.604 156.542C286.802 153.651 287.001 151.316 287.15 149.706C287.23 148.941 287.299 148.325 287.349 147.848C287.366 147.634 287.399 147.422 287.448 147.213V147.213Z" fill="#263238"/>
<path d="M298.686 163.577C298.517 163.298 294.711 156.294 294.711 156.294L285.561 144.788C285.561 144.788 282.729 145.533 284.05 149.339C285.372 153.144 288.025 154.813 288.025 156.294C288.025 157.774 287.19 158.47 284.05 158.728C280.911 158.986 263.026 158.947 261.198 159.821C259.37 160.695 259.628 162.802 261.109 163.09C262.589 163.378 274.929 163.477 275.357 163.437C275.758 163.442 276.156 163.506 276.539 163.626C276.539 163.626 273.856 164.62 274.254 166.716C274.336 167.294 274.627 167.823 275.072 168.202C275.516 168.58 276.084 168.784 276.668 168.773C276.38 169.135 276.167 169.551 276.043 169.996C275.918 170.441 275.884 170.907 275.943 171.366C276.102 171.801 276.345 172.201 276.659 172.542C276.972 172.883 277.35 173.159 277.771 173.353C277.597 173.565 277.474 173.812 277.409 174.078C277.345 174.344 277.341 174.621 277.398 174.888C277.456 175.155 277.573 175.406 277.74 175.622C277.908 175.838 278.122 176.013 278.367 176.135C280.215 177.437 280.553 178.053 283.593 177.953C286.634 177.854 293.787 177.635 293.787 177.635L298.686 163.577Z" fill="#FFCAAE"/>
<path d="M284.259 239.952C284.491 240.021 284.715 240.118 284.925 240.24L286.793 241.164C287.597 241.581 288.591 242.078 289.773 242.585C290.956 243.092 292.267 243.747 293.747 244.314L296.112 245.248C296.927 245.566 297.811 245.834 298.705 246.152C300.494 246.807 302.451 247.344 304.498 247.94C313.469 250.399 322.75 251.534 332.049 251.308C334.186 251.219 336.212 251.159 338.11 250.951C339.104 250.861 339.968 250.812 340.842 250.692L343.356 250.355C344.966 250.166 346.396 249.858 347.658 249.629C348.92 249.401 350.013 249.182 350.887 248.973L352.924 248.516C353.161 248.449 353.404 248.409 353.649 248.397C353.424 248.49 353.192 248.563 352.954 248.616L350.967 249.162C350.093 249.411 348.98 249.679 347.748 249.917C346.516 250.156 345.055 250.504 343.446 250.712L340.922 251.09C340.048 251.219 339.124 251.279 338.18 251.378C336.282 251.606 334.205 251.676 332.089 251.785C322.758 252.077 313.438 250.944 304.448 248.427C302.391 247.811 300.424 247.265 298.636 246.589C297.742 246.261 296.857 245.983 296.033 245.645L293.678 244.651C292.168 244.055 290.856 243.39 289.704 242.843C288.551 242.297 287.558 241.79 286.723 241.343L284.895 240.349C284.669 240.24 284.456 240.106 284.259 239.952V239.952Z" fill="#263238"/>
<path d="M290.23 211.059C290.111 210.989 299.331 195.44 310.827 176.344C322.322 157.247 331.741 141.817 331.861 141.897C331.98 141.976 322.76 157.506 311.264 176.612C299.768 195.718 290.32 211.138 290.23 211.059Z" fill="white"/>
<path d="M284.627 239.823C284.507 239.743 298.387 217.309 315.636 189.707C332.884 162.106 346.963 139.791 347.082 139.87C347.201 139.95 333.321 162.374 316.073 189.986C298.825 217.597 284.746 239.952 284.627 239.823Z" fill="white"/>
<path d="M376.054 384.207C376.054 381.823 375.955 245.704 375.806 56.5993L376.054 56.8477H258.724L258.983 56.5893C258.983 186.806 258.923 303.987 258.903 384.197L258.724 384.029L376.054 384.197L258.724 384.376H258.526V384.197C258.526 303.947 258.466 186.806 258.436 56.5893V56.3409H376.273V56.5893C376.164 245.704 376.064 381.833 376.054 384.207Z" fill="#263238"/>
<path d="M289.654 284.662C289.654 284.662 289.406 284.662 288.968 284.593C288.352 284.473 287.747 284.3 287.16 284.076C285.209 283.324 283.434 282.178 281.945 280.709C280.456 279.241 279.286 277.482 278.506 275.541C278.273 274.956 278.093 274.351 277.97 273.733C277.88 273.296 277.85 273.047 277.89 273.047C277.93 273.047 278.208 273.971 278.884 275.392C280.583 279.117 283.592 282.087 287.339 283.738C288.72 284.374 289.684 284.583 289.654 284.662Z" fill="#455A64"/>
<path d="M360.088 273.733C359.443 273.281 358.876 272.727 358.409 272.094C357.183 270.647 356.129 269.064 355.269 267.374C354.398 265.684 353.731 263.896 353.282 262.049C353.05 261.299 352.933 260.518 352.934 259.734C353.671 262.269 354.601 264.743 355.716 267.136C356.998 269.446 358.46 271.652 360.088 273.733Z" fill="#455A64"/>
<path d="M278.168 251.12C278.422 252.778 278.223 254.473 277.592 256.028C277.128 257.641 276.244 259.102 275.029 260.26C275.804 258.83 276.497 257.357 277.105 255.849C277.547 254.293 277.902 252.715 278.168 251.12V251.12Z" fill="#455A64"/>
<path d="M318.428 275.323C318.026 272.941 317.801 270.534 317.752 268.119C317.53 265.715 317.477 263.298 317.593 260.886C317.994 263.268 318.22 265.675 318.269 268.09C318.49 270.494 318.544 272.911 318.428 275.323V275.323Z" fill="#455A64"/>
<path d="M323.803 260.36C323.803 260.36 323.982 260.28 324.29 260.36C324.736 260.456 325.138 260.697 325.432 261.045C325.665 261.304 325.838 261.611 325.938 261.944C326.037 262.277 326.062 262.629 326.009 262.973C325.908 263.395 325.693 263.781 325.387 264.088C325.082 264.396 324.697 264.613 324.276 264.715C323.854 264.818 323.413 264.803 323 264.67C322.587 264.538 322.218 264.295 321.935 263.966C321.734 263.681 321.6 263.355 321.542 263.011C321.483 262.667 321.502 262.315 321.597 261.979C321.703 261.535 321.95 261.137 322.303 260.846C322.561 260.648 322.74 260.618 322.75 260.648C322.348 261.026 322.07 261.519 321.955 262.059C321.9 262.337 321.903 262.624 321.964 262.901C322.026 263.178 322.144 263.439 322.312 263.668C322.545 263.909 322.836 264.086 323.157 264.18C323.479 264.275 323.819 264.284 324.145 264.207C324.471 264.129 324.771 263.969 325.016 263.74C325.261 263.511 325.442 263.223 325.542 262.903C325.591 262.624 325.582 262.338 325.516 262.063C325.449 261.787 325.326 261.529 325.154 261.303C324.81 260.859 324.339 260.529 323.803 260.36Z" fill="#455A64"/>
<path d="M261.953 140.814C261.814 140.814 261.695 124.351 261.695 104.052C261.695 83.7535 261.814 67.2902 261.953 67.2902C262.093 67.2902 262.212 83.7535 262.212 104.052C262.212 124.351 262.102 140.814 261.953 140.814Z" fill="#263238"/>
<path d="M261.953 150.978C261.814 150.978 261.695 150.114 261.695 149.051C261.695 147.987 261.814 147.123 261.953 147.123C262.093 147.123 262.212 147.987 262.212 149.051C262.212 150.114 262.102 150.978 261.953 150.978Z" fill="#263238"/>
<path d="M349.298 61.1101C349.298 61.2592 330.599 61.3685 307.568 61.3685C284.537 61.3685 265.838 61.2592 265.838 61.1101C265.838 60.9611 284.527 60.8518 307.568 60.8518C330.609 60.8518 349.298 60.971 349.298 61.1101Z" fill="#263238"/>
<path d="M370.182 341.295C370.033 341.295 369.924 316.665 369.924 286.282C369.924 255.898 370.033 231.278 370.182 231.278C370.331 231.278 370.441 255.898 370.441 286.282C370.441 316.665 370.322 341.295 370.182 341.295Z" fill="#263238"/>
<path d="M354.901 379.955C354.901 380.094 334.603 380.213 309.575 380.213C284.547 380.213 264.239 380.094 264.239 379.955C264.239 379.816 284.527 379.687 309.575 379.687C334.623 379.687 354.901 379.806 354.901 379.955Z" fill="#263238"/>
<path d="M390.839 113.203C391.067 113.401 391.663 187.432 391.663 187.432L394.972 192.4L397.456 187.174L393.829 113.163L390.839 113.203Z" fill="#FF9F1C"/>
<path opacity="0.3" d="M390.839 113.203C391.067 113.401 391.663 187.432 391.663 187.432L394.972 192.4L397.456 187.174L393.829 113.163L390.839 113.203Z" fill="black"/>
<g opacity="0.3">
<path d="M351.315 49.1277C354.817 70.7975 364.896 90.8668 380.188 106.615C382.552 109.05 385.106 111.464 386.378 114.564C387.908 118.359 387.371 122.622 386.775 126.665L383.427 150.004C382.771 154.644 382.105 159.403 383.099 163.974C384.092 168.544 387.073 172.995 391.584 174.337L392.22 109.06L373.779 89.0591L362.154 67.2503L356.312 49.1277H351.315Z" fill="black"/>
</g>
<path d="M353.64 49.1874C353.64 49.1874 366.904 100.753 391.524 107.033L390.839 100.575C390.839 100.575 368.166 89.536 359.571 49.1874H353.64Z" fill="#FF9F1C"/>
<path d="M389.746 99.8394L385.871 105.085L389.746 113.471L395.101 113.203L397.456 103.416L392.965 99.8394H389.746Z" fill="#FF9F1C"/>
<path d="M395.985 102.244L391.961 78.1101L391.663 100.028L395.985 102.244Z" fill="#FF9F1C"/>
<path d="M389.746 113.471L387.182 166.17L399.443 177.904L405.722 158.579L395.101 113.203L389.746 113.471Z" fill="#FF9F1C"/>
<path d="M389.358 121.588L396.194 117.863L395.578 115.22L389.527 118.111L389.358 121.588Z" fill="white"/>
<path d="M391.663 124.043C391.491 122.282 391.491 120.508 391.663 118.747C391.682 116.978 391.868 115.215 392.22 113.481C392.398 115.242 392.398 117.016 392.22 118.777C392.201 120.546 392.014 122.309 391.663 124.043V124.043Z" fill="#263238"/>
<path d="M393.74 124.142C393.398 122.391 393.232 120.61 393.243 118.826C393.069 117.049 393.069 115.258 393.243 113.481C393.579 115.233 393.745 117.013 393.74 118.797C393.908 120.574 393.908 122.364 393.74 124.142V124.142Z" fill="#263238"/>
<path d="M393.64 172.35L404.172 163.348L399.244 177.705L393.64 172.35Z" fill="white"/>
<path opacity="0.3" d="M390.342 113.441L392.697 114.733L393.472 118.29V113.888L394.753 113.203L390.342 113.441Z" fill="black"/>
<path d="M402.99 146.765L387.55 158.648L387.292 164.043L403.993 151.028L402.99 146.765Z" fill="white"/>
<path d="M400.059 134.306L388.285 143.665L388.027 149.06L401.013 138.449L400.059 134.306Z" fill="white"/>
<path d="M388.712 134.753L398.37 127.143L397.664 124.142L388.921 130.56L388.712 134.753Z" fill="white"/>
<path d="M405.722 158.579C405.654 159.064 405.534 159.54 405.365 160L404.212 163.825C403.218 167.054 401.798 171.495 400.238 176.393C400.059 176.94 399.89 177.476 399.721 177.983L399.612 178.351L399.324 178.073C395.876 174.774 392.836 171.813 390.66 169.677C389.666 168.683 388.782 167.789 388.116 167.133C387.79 166.832 387.494 166.499 387.232 166.14C387.586 166.394 387.918 166.676 388.226 166.984L390.888 169.409C393.124 171.485 396.204 174.377 399.652 177.685L399.234 177.794C399.393 177.288 399.572 176.741 399.751 176.205C401.341 171.306 402.801 166.875 403.894 163.686C404.421 162.166 404.888 160.894 405.206 159.91C405.34 159.453 405.513 159.007 405.722 158.579V158.579Z" fill="#263238"/>
<path d="M387.182 103.307L395.648 110.947L396.681 106.655L388.712 101.24L387.182 103.307Z" fill="white"/>
<path d="M387.55 109.099C388.428 107.72 389.451 106.438 390.6 105.274C391.617 103.994 392.77 102.828 394.038 101.797C393.151 103.167 392.129 104.445 390.988 105.612C389.966 106.891 388.814 108.059 387.55 109.099V109.099Z" fill="#263238"/>
<path d="M389.746 113.471C390.218 113.357 390.701 113.293 391.186 113.282L395.101 113.004L394.912 113.153C395.498 110.59 396.283 107.192 397.178 103.486V103.356L397.297 103.645L391.514 100.227H391.614L389.696 100.018L389.895 99.9287C388.693 101.508 387.699 102.8 386.994 103.694C386.647 104.179 386.262 104.634 385.841 105.055C386.118 104.522 386.451 104.019 386.835 103.555C387.48 102.562 388.424 101.28 389.577 99.6803L389.646 99.5809H389.776L391.683 99.7498H391.733H391.783L397.585 103.118L397.754 103.217V103.406V103.525C396.86 107.231 396.025 110.619 395.369 113.163V113.312H395.22L391.306 113.411C390.79 113.49 390.266 113.51 389.746 113.471Z" fill="#263238"/>
<path d="M376.422 96.7593L380.088 91.8511L382.413 94.2058L378.509 98.9849L376.422 96.7593Z" fill="white"/>
<path d="M369.884 87.8768L373.729 83.8926L372.1 81.3491L368.493 85.542L369.884 87.8768Z" fill="white"/>
<path d="M363.804 76.709L367.559 73.162L366.417 70.7278L362.721 74.404L363.804 76.709Z" fill="white"/>
<path d="M359.154 65.8992L363.188 62.4018L362.224 59.5801L358.25 63.4947L359.154 65.8992Z" fill="white"/>
<path d="M202.3 111.524L206.582 103.059C204.405 97.0993 204.535 90.5411 206.948 84.673C209.36 78.8049 213.88 74.0514 219.62 71.3467C225.359 68.642 231.902 68.1817 237.964 70.0564C244.025 71.931 249.166 76.005 252.376 81.4776C255.586 86.9502 256.634 93.4255 255.312 99.631C253.99 105.836 250.396 111.323 245.234 115.013C240.073 118.703 233.718 120.328 227.419 119.57C221.119 118.813 215.331 115.726 211.192 110.918V110.918L202.3 111.524Z" fill="white"/>
<path d="M211.214 110.989L202.414 111.517C202.376 111.591 202.348 111.646 202.33 111.683C202.348 111.646 202.375 111.591 202.412 111.517C202.78 110.778 204.089 108.144 206.562 103.197C205.078 99.1456 204.648 94.7834 205.31 90.5196C205.408 89.8761 205.544 89.2391 205.718 88.6119C205.887 87.9363 206.026 87.2806 206.234 86.6248L206.96 84.6377C207.218 83.9521 207.566 83.3162 207.874 82.6505C209.491 79.5405 211.732 76.7973 214.457 74.5924C217.182 72.3875 220.333 70.7683 223.712 69.8358C227.091 68.9034 230.626 68.6778 234.096 69.1732C237.566 69.6686 240.897 70.8743 243.88 72.7149C245.589 73.7672 247.169 75.0142 248.59 76.4308C248.918 76.7885 249.246 77.1859 249.583 77.5536C249.942 77.9206 250.274 78.3123 250.577 78.726C251.233 79.5683 251.831 80.4547 252.365 81.3788C253.432 83.1535 254.286 85.0477 254.909 87.0222C255.048 87.5091 255.167 88.0059 255.287 88.5026C255.43 88.9913 255.54 89.4893 255.614 89.993C255.795 90.9777 255.908 91.9736 255.952 92.9737C256.165 96.8966 255.485 100.817 253.965 104.439C251.937 109.159 248.535 113.158 244.202 115.917C239.87 118.676 234.807 120.067 229.672 119.909L228.58 119.85C228.22 119.847 227.861 119.814 227.506 119.75L225.43 119.432C224.128 119.164 222.849 118.796 221.605 118.329C219.389 117.51 217.302 116.379 215.405 114.971C213.86 113.808 212.45 112.475 211.202 110.997L211.214 110.989Z" fill="#263238"/>
<path d="M241.247 92.0199C241.011 90.6461 240.355 89.3792 239.37 88.3934C238.448 87.3825 237.231 86.6872 235.892 86.4063C234.753 86.2001 233.577 86.3731 232.545 86.8989C231.513 87.4247 230.682 88.2743 230.179 89.3174C229.768 88.6543 229.21 88.0936 228.55 87.678C227.94 87.2932 227.259 87.0351 226.547 86.919C225.835 86.803 225.107 86.8313 224.407 87.0024C223.09 87.3752 221.923 88.1498 221.068 89.2181C220.157 90.2746 219.591 91.5856 219.449 92.9737C219.297 94.7448 219.718 96.5178 220.651 98.031C221.727 99.5589 223.155 100.806 224.814 101.667C227.507 103.168 231.044 105.036 231.044 105.036C231.044 105.036 233.905 102.74 236.488 101.061C238.086 100.064 239.424 98.7016 240.393 97.0871C241.206 95.5308 241.505 93.7568 241.247 92.0199V92.0199Z" fill="#FF9F1C"/>
<path d="M195.315 419.787L194.828 447.368L200.79 469.287C200.891 469.66 200.914 470.051 200.858 470.434C200.802 470.817 200.668 471.184 200.464 471.513C200.26 471.842 199.99 472.126 199.672 472.346C199.354 472.566 198.993 472.719 198.614 472.794V472.794C198.171 472.884 197.713 472.867 197.279 472.742C196.845 472.618 196.447 472.39 196.12 472.078C191.897 468.104 176.666 453.35 176.656 451.621C176.656 449.395 175.126 422.082 175.126 422.082L195.315 419.787Z" fill="#455A64"/>
<path d="M198.564 472.814L176.467 448.481V450.538C176.352 451.424 176.592 452.32 177.133 453.032C182.967 459.875 189.18 466.387 195.742 472.535C196.418 473.191 197.61 473.022 198.534 472.814H198.564Z" fill="#263238"/>
<path d="M182.101 440.443C182.441 440.689 182.679 441.052 182.769 441.463C182.859 441.874 182.794 442.303 182.588 442.669C182.352 443.017 181.993 443.262 181.583 443.355C181.173 443.447 180.744 443.379 180.382 443.166C180.02 442.904 179.769 442.516 179.677 442.079C179.585 441.642 179.659 441.186 179.885 440.801C180.166 440.463 180.568 440.247 181.005 440.198C181.443 440.15 181.882 440.274 182.23 440.543" fill="white"/>
<path d="M192.195 460.801C192.784 459.875 193.614 459.127 194.596 458.637C195.578 458.146 196.675 457.933 197.769 458.019C197.769 457.95 197.441 457.731 196.776 457.652C195.927 457.564 195.072 457.72 194.308 458.1C193.545 458.479 192.905 459.068 192.464 459.798C192.165 460.364 192.126 460.772 192.195 460.801Z" fill="#263238"/>
<path d="M194.172 464.497C194.312 464.617 195.166 463.722 196.617 463.305C198.067 462.888 199.26 463.116 199.299 462.938C199.339 462.759 198.047 462.222 196.438 462.719C194.828 463.216 194.033 464.408 194.172 464.497Z" fill="#263238"/>
<path d="M188.509 456.082C188.638 456.211 189.99 454.82 192.146 453.976C194.302 453.131 196.229 453.191 196.229 452.982C196.229 452.773 194.242 452.465 191.917 453.399C190.5 453.864 189.293 454.814 188.509 456.082V456.082Z" fill="#263238"/>
<path d="M187.983 447.686C188.062 447.855 189.582 447.209 191.559 447.13C193.537 447.05 195.116 447.517 195.176 447.339C194.057 446.744 192.797 446.463 191.531 446.524C190.265 446.585 189.039 446.987 187.983 447.686V447.686Z" fill="#263238"/>
<path d="M187.893 439.589C187.983 439.748 189.503 438.824 191.599 438.903C192.857 439.034 194.091 439.338 195.265 439.807C195.265 439.748 195.007 439.4 194.361 439.042C193.515 438.587 192.574 438.335 191.613 438.307C190.652 438.28 189.698 438.477 188.827 438.883C188.171 439.201 187.853 439.529 187.893 439.589Z" fill="#263238"/>
<path d="M191.539 437.363C191.621 437.02 191.621 436.663 191.539 436.32C191.438 435.366 191.151 434.441 190.695 433.598C190.412 432.948 189.923 432.411 189.304 432.067C189.09 431.974 188.852 431.949 188.623 431.995C188.393 432.041 188.184 432.157 188.022 432.326C187.734 432.678 187.583 433.123 187.595 433.578C187.659 434.505 188.046 435.381 188.688 436.052C189.331 436.724 190.189 437.149 191.112 437.254C192.026 437.343 192.946 437.158 193.754 436.722C194.563 436.287 195.224 435.621 195.653 434.81C195.76 434.604 195.822 434.378 195.834 434.147C195.846 433.915 195.808 433.684 195.722 433.468C195.613 433.26 195.441 433.092 195.231 432.986C195.02 432.881 194.782 432.845 194.55 432.882C193.87 433.048 193.246 433.391 192.742 433.876C191.997 434.479 191.365 435.209 190.874 436.032C190.526 436.608 190.417 436.976 190.456 437.025C191.159 435.978 192.017 435.043 193 434.253C193.464 433.867 194.012 433.595 194.6 433.458C194.727 433.437 194.858 433.456 194.974 433.513C195.09 433.57 195.185 433.662 195.245 433.776C195.289 433.921 195.302 434.073 195.285 434.224C195.268 434.374 195.221 434.519 195.146 434.651C194.756 435.344 194.172 435.91 193.467 436.278C192.761 436.647 191.964 436.803 191.172 436.727C190.392 436.635 189.667 436.281 189.115 435.724C188.563 435.166 188.216 434.437 188.132 433.657C188.115 433.34 188.21 433.027 188.4 432.773C188.487 432.677 188.601 432.61 188.727 432.581C188.854 432.553 188.986 432.564 189.105 432.614C189.621 432.91 190.036 433.352 190.298 433.886C190.912 434.963 191.332 436.14 191.539 437.363V437.363Z" fill="#263238"/>
<path d="M122.338 417.393L123.927 441.059C123.927 441.059 100.37 448.909 100.241 453.31L146.253 453.568L145.259 416.588L122.338 417.393Z" fill="#455A64"/>
<g opacity="0.6">
<path d="M138.096 438.665C138.541 438.788 138.926 439.071 139.177 439.459C139.427 439.847 139.527 440.314 139.457 440.771C139.352 441.222 139.078 441.616 138.692 441.871C138.306 442.126 137.836 442.223 137.38 442.142C136.908 442.011 136.501 441.711 136.237 441.298C135.973 440.886 135.871 440.39 135.95 439.907C136.022 439.67 136.141 439.45 136.298 439.26C136.456 439.069 136.65 438.912 136.869 438.796C137.088 438.681 137.327 438.61 137.573 438.587C137.82 438.565 138.068 438.591 138.304 438.665" fill="white"/>
</g>
<path d="M146.253 453.568L146.163 449.842L101.691 451.114C101.222 451.355 100.82 451.71 100.522 452.145C100.223 452.58 100.038 453.083 99.9825 453.608L146.253 453.568Z" fill="#263238"/>
<path d="M123.172 440.851C123.172 441.079 124.315 441.149 125.438 441.844C126.56 442.54 127.186 443.454 127.425 443.364C127.663 443.275 127.246 441.973 125.875 441.169C124.504 440.364 123.113 440.652 123.172 440.851Z" fill="#263238"/>
<path d="M118.433 442.997C118.433 443.215 119.367 443.573 120.162 444.497C120.957 445.421 121.205 446.424 121.434 446.405C121.662 446.385 121.761 445.113 120.748 443.98C119.735 442.848 118.433 442.788 118.433 442.997Z" fill="#263238"/>
<path d="M115.85 448.859C116.058 448.859 116.327 447.766 115.721 446.554C115.114 445.342 114.031 444.885 113.942 445.073C113.853 445.262 114.528 445.908 115.015 446.911C115.502 447.915 115.621 448.849 115.85 448.859Z" fill="#263238"/>
<path d="M123.401 435.416C123.5 435.625 124.524 435.277 125.795 435.327C127.067 435.376 128.071 435.744 128.18 435.545C128.289 435.346 127.315 434.552 125.815 434.552C124.315 434.552 123.292 435.247 123.401 435.416Z" fill="#263238"/>
<g opacity="0.3">
<path d="M122.656 422.082L122.934 426.295L145.537 425.391L145.448 421.585L122.656 422.082Z" fill="black"/>
</g>
<path d="M123.172 430.637C123.934 430.813 124.729 430.785 125.477 430.557C126.306 430.379 127.11 430.102 127.872 429.733C128.323 429.52 128.758 429.274 129.173 428.997C129.425 428.843 129.653 428.652 129.849 428.431C129.991 428.266 130.074 428.059 130.087 427.842C130.099 427.625 130.04 427.409 129.919 427.229C129.802 427.076 129.652 426.954 129.479 426.871C129.306 426.788 129.117 426.747 128.925 426.752C128.632 426.757 128.341 426.804 128.061 426.891C127.575 427.026 127.102 427.206 126.65 427.428C125.881 427.8 125.176 428.293 124.563 428.888C123.57 429.882 123.192 430.766 123.272 430.806C123.351 430.845 123.868 430.16 124.931 429.305C125.541 428.818 126.208 428.407 126.918 428.083C127.342 427.899 127.781 427.749 128.23 427.636C128.716 427.497 129.124 427.477 129.223 427.686C129.322 427.895 129.273 427.805 129.223 427.944C129.081 428.11 128.914 428.251 128.726 428.362C128.329 428.64 127.922 428.878 127.534 429.097C126.827 429.468 126.089 429.778 125.328 430.021C124.597 430.179 123.877 430.385 123.172 430.637Z" fill="#263238"/>
<path d="M123.48 430.945C123.894 430.276 124.082 429.493 124.017 428.709C124.031 427.855 123.897 427.004 123.619 426.196C123.461 425.714 123.251 425.251 122.993 424.815C122.859 424.513 122.65 424.252 122.386 424.055C122.121 423.858 121.81 423.733 121.483 423.692C121.28 423.705 121.084 423.775 120.919 423.895C120.754 424.015 120.626 424.178 120.549 424.367C120.436 424.64 120.362 424.928 120.331 425.222C120.288 425.73 120.318 426.242 120.42 426.742C120.576 427.599 120.941 428.405 121.483 429.087C122.417 430.249 123.361 430.498 123.381 430.418C123.401 430.339 122.656 429.892 121.93 428.769C121.51 428.121 121.239 427.388 121.135 426.623C121.071 426.181 121.071 425.733 121.135 425.291C121.195 424.805 121.364 424.397 121.543 424.447C121.722 424.497 122.179 424.795 122.377 425.172C122.615 425.564 122.818 425.977 122.984 426.404C123.266 427.137 123.44 427.907 123.5 428.689C123.57 430.07 123.401 430.915 123.48 430.945Z" fill="#263238"/>
<path d="M151.519 75.8546L146.253 121.131C145.19 128.841 143.67 140.267 155.94 141.39C166.661 141.549 170.714 131.892 171.688 124.688C172.155 121.28 172.552 118.429 172.622 118.081C172.622 118.081 184.316 118.578 186.721 107.271C187.883 101.807 189.364 90.3805 190.576 79.968C191.199 74.5922 189.778 69.1786 186.593 64.803C183.408 60.4274 178.694 57.4102 173.387 56.3509L172.294 56.1323C160.322 54.4631 152.85 63.8821 151.519 75.8546Z" fill="#FFCAAE"/>
<path d="M172.622 118.091C167.382 117.033 162.555 114.495 158.712 110.778C158.712 110.778 160.699 119.78 172.175 121.012L172.622 118.091Z" fill="#FF935C"/>
<path d="M170.317 85.4426C170.24 85.8425 170.01 86.1967 169.676 86.4303C169.342 86.6639 168.931 86.7587 168.529 86.6945C168.327 86.6691 168.134 86.6035 167.958 86.5015C167.783 86.3996 167.63 86.2635 167.509 86.1012C167.387 85.939 167.3 85.754 167.251 85.5572C167.203 85.3604 167.195 85.1559 167.227 84.9558C167.302 84.5546 167.531 84.1989 167.866 83.9649C168.2 83.7308 168.613 83.6371 169.015 83.7039C169.218 83.7266 169.413 83.7905 169.59 83.8916C169.766 83.9927 169.92 84.1289 170.042 84.2918C170.164 84.4547 170.251 84.6408 170.299 84.8388C170.346 85.0367 170.352 85.2422 170.317 85.4426V85.4426Z" fill="#263238"/>
<path d="M173.854 96.183C174.827 96.0514 175.812 96.0514 176.785 96.183C177.232 96.183 177.679 96.183 177.779 95.9346C177.918 95.4848 177.918 95.0033 177.779 94.5535C177.57 93.3911 177.361 92.1789 177.133 90.9071C176.268 85.7108 175.742 81.4782 175.95 81.4484C176.159 81.4186 177.033 85.5916 177.938 90.7879C178.136 92.0597 178.335 93.2818 178.514 94.4442C178.69 95.0387 178.648 95.6767 178.395 96.2426C178.3 96.3856 178.174 96.5049 178.026 96.591C177.877 96.6772 177.711 96.728 177.54 96.7394C177.279 96.7712 177.016 96.7712 176.755 96.7394C175.768 96.6782 174.793 96.4913 173.854 96.183V96.183Z" fill="#263238"/>
<path d="M170.794 74.9505C170.555 75.3479 169.065 74.8412 167.217 74.7021C165.369 74.563 163.809 74.7816 163.64 74.3544C163.571 74.1457 163.908 73.788 164.584 73.49C165.462 73.1198 166.418 72.973 167.366 73.0627C168.311 73.135 169.225 73.435 170.029 73.9371C170.635 74.3444 170.903 74.7518 170.794 74.9505Z" fill="#263238"/>
<path d="M150.744 84.598C150.555 84.4788 142.944 80.753 141.802 88.9797C140.659 97.2064 149.144 96.6599 149.194 96.4215C149.243 96.183 150.744 84.598 150.744 84.598Z" fill="#FFCAAE"/>
<path d="M147.117 92.9539C147.117 92.9539 146.958 93.0334 146.7 93.1129C146.339 93.2118 145.954 93.1654 145.627 92.9838C144.802 92.5466 144.266 91.0662 144.425 89.5758C144.509 88.8707 144.746 88.1924 145.12 87.5887C145.223 87.3315 145.391 87.1051 145.607 86.9312C145.822 86.7572 146.079 86.6415 146.352 86.5951C146.522 86.5736 146.693 86.6126 146.837 86.7053C146.981 86.798 147.087 86.9384 147.137 87.1019C147.217 87.3502 147.137 87.5092 147.187 87.5291C147.236 87.5489 147.376 87.4099 147.356 87.0621C147.341 86.8533 147.253 86.6564 147.107 86.5057C147.008 86.4042 146.888 86.3238 146.757 86.2691C146.626 86.2145 146.485 86.1869 146.342 86.1878C145.995 86.2037 145.659 86.3102 145.366 86.4968C145.073 86.6833 144.834 86.9433 144.673 87.2509C144.224 87.9123 143.941 88.6724 143.848 89.4665C143.67 91.1357 144.305 92.8049 145.448 93.3116C145.657 93.4135 145.886 93.4664 146.119 93.4664C146.351 93.4664 146.58 93.4135 146.789 93.3116C147.068 93.1527 147.137 92.9738 147.117 92.9539Z" fill="#FF935C"/>
<path d="M173.467 101.667C173.516 101.459 171.917 101.24 170.625 99.9685C170.078 99.4067 169.607 98.7753 169.224 98.0906C168.906 97.5641 168.688 97.2262 168.598 97.266C168.509 97.3057 168.598 97.6833 168.827 98.2595C169.121 99.0587 169.585 99.7843 170.188 100.386C170.804 100.988 171.574 101.411 172.413 101.608C173.079 101.787 173.457 101.737 173.467 101.667Z" fill="#263238"/>
<path d="M186.88 88.3537C186.802 88.7536 186.572 89.1078 186.239 89.3414C185.905 89.575 185.494 89.6697 185.091 89.6056C184.893 89.5825 184.701 89.5197 184.528 89.4211C184.354 89.3225 184.202 89.1901 184.081 89.0316C183.959 88.8731 183.871 88.6919 183.821 88.4986C183.771 88.3054 183.76 88.1041 183.79 87.9066C183.865 87.5075 184.093 87.1534 184.425 86.9196C184.757 86.6858 185.167 86.5908 185.568 86.6547C185.767 86.6779 185.959 86.7406 186.133 86.8391C186.307 86.9375 186.459 87.0698 186.582 87.2281C186.704 87.3864 186.793 87.5675 186.844 87.7608C186.895 87.9541 186.908 88.1557 186.88 88.3537V88.3537Z" fill="#263238"/>
<path d="M207.317 71.632C207.232 71.1557 206.969 70.7296 206.582 70.4397C205.715 69.9146 204.724 69.6268 203.711 69.6052C201.218 69.248 198.839 68.3272 196.756 66.9126C197.579 66.637 198.351 66.2275 199.041 65.7004C199.766 65.17 200.334 64.4528 200.684 63.6253C201.034 62.7977 201.153 61.8907 201.028 61.0009C201.009 60.8324 200.952 60.6705 200.86 60.5276C200.769 60.3846 200.646 60.2645 200.501 60.1762C200.015 59.9576 199.508 60.3948 199.11 60.7525C198.583 61.3084 197.914 61.7117 197.176 61.9198C196.439 62.1278 195.658 62.1331 194.918 61.9348C193.883 61.7399 192.905 61.3155 192.056 60.6929L191.977 60.5637L190.963 59.2125C188.38 55.9238 186.105 53.5889 183.631 52.2575C180.004 50.2704 173.695 48.8297 169.592 49.3762C165.488 49.9226 161.514 52.7046 160.451 56.7087C158.464 54.5427 155.096 54.1453 152.244 54.9004H152.184C149.015 55.6058 146.899 58.5865 145.627 61.5573L145.418 62.054C144.199 63.5599 142.635 64.7495 140.858 65.5216C140.54 65.6607 140.182 65.8197 140.103 66.1575C140.094 66.3251 140.127 66.4923 140.2 66.6434C140.273 66.7946 140.383 66.9248 140.52 67.0219C141.184 67.6363 141.979 68.0916 142.845 68.3533C142.479 69.0513 142.054 69.7162 141.573 70.3404C141.156 70.8769 140.669 71.5227 140.888 72.1586C140.995 72.3978 141.174 72.5978 141.4 72.7312C141.626 72.8646 141.888 72.9249 142.149 72.9038C142.673 72.8568 143.18 72.7011 143.64 72.4467L142.328 74.7419C143.404 75.0671 144.541 75.1318 145.647 74.9307C145.834 77.879 146.186 80.8145 146.7 83.7237C147.962 83.8827 149.194 83.7237 149.889 84.5285C150.883 85.6115 151.082 87.5092 152.93 87.0025C153.864 86.7739 154.917 85.0153 155.334 84.1211C158.089 78.2823 159.553 71.9179 159.626 65.462C161.055 64.2845 162.693 63.3878 164.455 62.8191L164.306 62.9284C167.634 62.213 171.39 61.5771 174.242 63.455C176.447 64.9056 177.53 67.5187 179.04 69.6946C180.37 71.653 182.091 73.3142 184.095 74.5729C186.1 75.8317 188.344 76.6606 190.685 77.0072C190.685 80.5145 189.791 84.8464 189.562 88.0855L193.179 83.2667C193.447 82.909 193.676 82.5513 193.904 82.1936L193.984 82.0843C194.332 81.4927 194.71 80.9191 195.116 80.3655V80.3655C195.269 80.5801 195.462 80.7626 195.686 80.9024C195.909 81.0423 196.157 81.1369 196.417 81.1807C196.677 81.2245 196.943 81.2167 197.199 81.1578C197.456 81.0989 197.699 80.9901 197.913 80.8374C198.128 80.6847 198.31 80.4913 198.45 80.2681C198.59 80.045 198.685 79.7964 198.728 79.5367C198.772 79.277 198.764 79.0112 198.706 78.7545C198.647 78.4977 198.538 78.2551 198.385 78.0405C198.164 77.633 197.879 77.2639 197.541 76.9476C197.888 77.3765 198.341 77.7087 198.854 77.9123C199.367 78.1158 199.924 78.184 200.472 78.1101C201.017 78.0127 201.515 77.7394 201.89 77.3321C202.265 76.9248 202.496 76.4059 202.548 75.8547C202.55 75.48 202.454 75.1113 202.269 74.7854C202.084 74.4594 201.817 74.1875 201.495 73.9967C202.9 74.2874 204.36 74.1525 205.688 73.6092C206.572 73.341 207.456 72.6753 207.317 71.632Z" fill="#263238"/>
<path d="M163.918 58.4375C163.469 58.7017 163.044 59.0042 162.647 59.3416C161.605 60.3206 160.834 61.5529 160.411 62.9185C160.099 63.8513 159.883 64.8134 159.765 65.7899C159.626 66.8431 159.567 67.9857 159.497 69.1779C159.45 70.4398 159.324 71.6975 159.119 72.9436C159.004 73.6184 158.835 74.283 158.613 74.9307C158.424 75.6151 158.065 76.2407 157.57 76.7489C157.343 76.9462 157.069 77.0811 156.775 77.1404C156.48 77.1996 156.175 77.1811 155.89 77.0867C155.341 76.9178 154.864 76.5676 154.539 76.0932C154.023 75.1613 153.765 74.108 153.794 73.0429L154.032 73.1025C153.579 73.9217 153.01 74.6713 152.343 75.3281C151.7 75.9308 150.85 76.2649 149.969 76.2621C149.559 76.2483 149.161 76.1247 148.816 75.9044C148.494 75.6911 148.247 75.3817 148.111 75.0201C147.979 74.6856 147.938 74.3224 147.992 73.9669C148.05 73.6423 148.219 73.3477 148.468 73.1323L148.578 73.2516C147.801 73.9466 146.887 74.4713 145.895 74.7916C145.631 74.8724 145.362 74.9387 145.09 74.9903C144.998 75.0033 144.904 75.0033 144.812 74.9903L145.08 74.9108C145.346 74.846 145.608 74.7664 145.865 74.6724C146.828 74.3265 147.713 73.7929 148.468 73.1025L148.578 73.2217C148.359 73.4379 148.214 73.717 148.162 74.02C148.111 74.3229 148.155 74.6345 148.29 74.9108C148.416 75.2342 148.638 75.5115 148.925 75.7057C149.239 75.8996 149.6 76.006 149.969 76.0137C150.794 76.0068 151.586 75.6873 152.184 75.1195C152.83 74.473 153.379 73.7368 153.814 72.9336L154.022 72.5958V72.9932C153.995 74.0091 154.238 75.014 154.728 75.9044C155.016 76.3302 155.44 76.6455 155.93 76.7986C156.172 76.8844 156.433 76.903 156.685 76.8523C156.937 76.8015 157.171 76.6834 157.361 76.5104C157.831 76.038 158.173 75.4532 158.354 74.8115C158.568 74.1889 158.734 73.5512 158.851 72.9038C159.06 71.6714 159.189 70.4269 159.239 69.1779C159.318 67.9757 159.378 66.8331 159.527 65.77C159.665 64.7829 159.898 63.8113 160.222 62.8688C160.667 61.4812 161.477 60.2388 162.567 59.2721C162.968 58.9203 163.424 58.6382 163.918 58.4375V58.4375Z" fill="#455A64"/>
<path d="M197.918 74.0265L197.809 74.0961L197.501 74.265C197.333 74.3631 197.157 74.4462 196.974 74.5133C196.735 74.6229 196.489 74.7191 196.239 74.8015C194.63 75.2938 192.924 75.3859 191.271 75.0697C188.794 74.5896 186.507 73.4065 184.684 71.6618C182.496 69.5043 180.769 66.9253 179.607 64.0809C178.941 62.5906 178.444 61.1002 177.858 59.6794C177.338 58.3196 176.625 57.0415 175.742 55.884C174.941 54.839 173.893 54.0094 172.692 53.4696C172.147 53.2435 171.57 53.1027 170.983 53.0523C170.437 53.017 169.889 53.0537 169.353 53.1616C168.426 53.3562 167.55 53.742 166.78 54.2943C166.205 54.7175 165.701 55.2308 165.29 55.8145C164.958 56.3272 164.687 56.8775 164.485 57.4538C164.485 57.4538 164.485 57.4538 164.485 57.3346L164.584 56.9968C164.727 56.5581 164.927 56.1404 165.18 55.7548C166.138 54.3287 167.613 53.331 169.294 52.9729C169.846 52.8586 170.41 52.8152 170.973 52.8437C171.586 52.8925 172.189 53.0332 172.761 53.261C173.999 53.8083 175.082 54.6551 175.911 55.725C176.801 56.8851 177.52 58.1666 178.047 59.5304C178.633 60.9512 179.14 62.4515 179.796 63.9219C180.93 66.7309 182.62 69.2823 184.763 71.4234C186.541 73.1552 188.779 74.3383 191.212 74.8313C192.858 75.1678 194.561 75.1065 196.179 74.6524C196.771 74.4774 197.351 74.2684 197.918 74.0265Z" fill="#455A64"/>
<path d="M199.587 69.0586C199.454 69.1594 199.307 69.2398 199.15 69.2971C198.73 69.4812 198.299 69.6372 197.859 69.764C197.208 69.9499 196.544 70.0795 195.871 70.1515C195.039 70.2316 194.2 70.2316 193.368 70.1515C192.537 70.0682 191.715 69.9086 190.914 69.6746C190.262 69.477 189.628 69.2278 189.016 68.9295C188.606 68.7254 188.211 68.493 187.833 68.234C187.565 68.0452 187.426 67.9359 187.436 67.916C187.446 67.8961 188.062 68.2836 189.105 68.7506C189.713 69.0258 190.341 69.255 190.983 69.4362C191.774 69.6542 192.581 69.8038 193.397 69.8833C194.214 69.9529 195.035 69.9529 195.852 69.8833C196.521 69.8239 197.185 69.7143 197.839 69.5554C198.912 69.3269 199.567 69.0586 199.587 69.0586Z" fill="#455A64"/>
<path d="M162.895 86.3367L175.613 88.7014C175.613 88.7014 175.722 93.7685 172.632 95.9544C169.542 98.1402 164.823 95.6066 163.6 93.083C162.745 90.9428 162.501 88.6074 162.895 86.3367V86.3367Z" fill="#455A64"/>
<path d="M179.498 89.4268L192.205 91.8014C192.205 91.8014 192.324 96.8686 189.225 99.0445C186.125 101.22 181.415 98.6967 180.183 96.183C179.338 94.0367 179.101 91.699 179.498 89.4268V89.4268Z" fill="#455A64"/>
<path d="M175.613 88.7014L179.726 89.4764V90.6985C179.061 90.2364 178.299 89.9318 177.498 89.8078C176.698 89.6839 175.88 89.7438 175.106 89.9831L175.613 88.7014Z" fill="#455A64"/>
<path d="M164.137 87.5886L174.073 89.4367C174.073 89.4367 174.162 93.4109 171.758 95.0801C169.353 96.7493 165.677 94.8118 164.723 92.8446C164.046 91.1805 163.843 89.3611 164.137 87.5886Z" fill="#263238"/>
<path d="M181.028 90.7283L190.963 92.5763C190.963 92.5763 191.053 96.5506 188.648 98.2198C186.244 99.8889 182.568 97.9515 181.614 95.9842C180.936 94.3201 180.733 92.5008 181.028 90.7283Z" fill="#263238"/>
<path d="M162.895 86.3367L150.446 85.0352C150.527 85.4292 150.691 85.8013 150.928 86.1268C151.164 86.4523 151.467 86.7237 151.817 86.9229L162.925 89.2976L162.895 86.3367Z" fill="#455A64"/>
<path d="M173.387 90.3408C173.457 90.3408 173.476 90.7581 173.337 91.394C173.168 92.2445 172.796 93.0419 172.254 93.7189C171.704 94.4119 170.938 94.9014 170.079 95.1099C169.413 95.259 168.996 95.1099 169.005 95.1099C169.015 95.1099 169.393 94.9907 169.999 94.7721C170.718 94.4779 171.35 94.0062 171.837 93.401C172.94 91.9107 173.188 90.2812 173.387 90.3408Z" fill="white"/>
<path d="M190.774 92.3975C190.844 92.3975 190.923 92.8545 190.774 93.5898C190.61 94.5505 190.222 95.4591 189.642 96.2426C189.065 97.029 188.309 97.6661 187.436 98.1006C186.77 98.4284 186.313 98.4781 186.284 98.4086C187.366 97.7174 188.34 96.8704 189.175 95.8949C190.496 94.1959 190.596 92.3776 190.774 92.3975Z" fill="white"/>
<path d="M170.834 82.2731C170.595 82.4818 169.363 81.3491 167.475 81.1802C165.588 81.0113 164.127 81.836 163.948 81.5876C163.769 81.3392 164.117 81.0709 164.753 80.6735C165.62 80.1761 166.621 79.9641 167.614 80.0674C168.594 80.1542 169.519 80.5589 170.247 81.2199C170.784 81.7366 170.943 82.1738 170.834 82.2731Z" fill="#263238"/>
<path d="M187.446 82.0346C187.227 82.3625 185.777 81.8856 183.998 81.7167C182.22 81.5478 180.73 81.7167 180.561 81.3093C180.491 81.1305 180.809 80.8423 181.445 80.6138C182.303 80.3337 183.212 80.2455 184.108 80.3555C185.016 80.4423 185.897 80.7199 186.691 81.1702C187.277 81.5279 187.545 81.8756 187.446 82.0346Z" fill="#263238"/>
<path d="M187.506 85.1942C187.267 85.4029 186.035 84.2702 184.157 84.1013C182.279 83.9324 180.799 84.7571 180.62 84.5087C180.441 84.2603 180.789 83.992 181.435 83.5946C182.298 83.0973 183.296 82.8852 184.286 82.9885C185.269 83.0782 186.195 83.4824 186.929 84.141C187.466 84.6577 187.625 85.0949 187.506 85.1942Z" fill="#263238"/>
<path d="M203.721 139.602C203.721 139.602 211.361 146.765 213.11 153.939C214.858 161.112 220.065 205.892 219.121 212.679C218.177 219.465 210.566 256.475 210.566 256.475L203.492 241.363L202.638 207.283L196.925 173.701V154.207L203.721 139.602Z" fill="#FFCAAE"/>
<path opacity="0.3" d="M122.894 254.766C122.894 254.766 152.771 263.529 164.505 260.846C176.239 258.164 208.361 248.198 208.361 248.198L207.615 245.218C207.615 245.218 152.969 255.153 152.701 255.292C152.433 255.432 133.774 252.659 133.774 252.659L123.53 250.454L122.894 254.766Z" fill="black"/>
<path d="M146.322 117.654L120.609 125.225L122.596 193.483L122.149 239.525L121.275 250.811C121.275 250.811 135.82 257.846 157.848 257.548C179.875 257.25 207.645 245.248 207.645 245.248C207.645 245.248 200.988 217.726 200.104 212.738C199.22 207.75 197.918 179.563 197.918 179.563V171.863L196.527 130.133L172.393 122.016C172.393 122.016 167.803 129.765 160.63 129.199C157.332 129.03 154.172 127.823 151.602 125.749C149.032 123.675 147.184 120.842 146.322 117.654V117.654Z" fill="#FF9F1C"/>
<path d="M196.547 130.103C197.143 130.252 209.265 134.962 212.007 148.405C213.716 156.81 216.905 173.87 216.905 173.87C210.443 177.463 203.212 179.45 195.822 179.662L196.547 130.103Z" fill="#FF9F1C"/>
<g opacity="0.3">
<path d="M213.328 159.96C212.604 159.573 211.774 159.434 210.964 159.562C205.996 159.821 201.028 160.099 196.299 161.728C191.251 163.497 186.9 166.696 182.518 169.796C170.496 178.202 157.768 185.554 145.07 192.897C141.325 195.053 137.072 197.298 132.889 196.195C128.915 195.142 126.67 190.75 122.606 191.456L122.507 199.772C126.59 204.034 131.449 207.472 137.311 208.178C142.577 208.804 147.833 206.965 152.542 204.531C167.545 196.791 179.368 182.802 195.742 178.629C198.723 177.874 201.803 177.447 204.476 175.956C208.688 173.611 211.113 169.081 213.308 164.789C214.113 163.219 214.809 160.973 213.328 159.96Z" fill="black"/>
</g>
<path d="M116.217 127.758C116.217 127.758 104.424 133.382 109.123 154.793C112.66 170.939 116.923 180.964 123.202 194.884C127.931 205.386 135.731 205.594 141.206 204.283C147.167 202.862 192.146 173.621 192.146 173.621L186.045 160.407L143.759 178.758L130.753 144.341C130.753 144.341 123.401 124.072 116.217 127.758Z" fill="#FFCAAE"/>
<path d="M120.609 125.225C119.198 125.742 105.149 130.66 106.967 145.484C108.646 159.165 112.78 180.964 112.78 180.964C118.314 180.099 123.77 178.79 129.094 177.049C133.904 175.353 138.305 172.665 142.01 169.16L127.455 127.311L120.609 125.225Z" fill="#FF9F1C"/>
<path d="M112.78 180.964C112.975 180.891 113.179 180.841 113.386 180.815L115.114 180.477C116.625 180.219 118.791 179.752 121.443 179.116C124.552 178.356 127.606 177.387 130.584 176.215C134.237 174.842 137.625 172.849 140.599 170.323C141.058 169.909 141.478 169.454 141.851 168.962V169.19L135.284 150.163C134.489 147.789 133.843 145.851 133.366 144.44L132.879 142.88C132.807 142.702 132.761 142.515 132.74 142.324C132.828 142.494 132.905 142.67 132.969 142.851C133.128 143.248 133.317 143.755 133.555 144.381C134.062 145.772 134.767 147.689 135.622 150.044L142.338 169.021L142.388 169.14L142.308 169.25C141.913 169.773 141.471 170.258 140.987 170.7C137.962 173.272 134.508 175.29 130.783 176.662C127.78 177.817 124.699 178.757 121.563 179.473C118.88 180.07 116.694 180.467 115.174 180.676L113.425 180.914C113.213 180.958 112.996 180.974 112.78 180.964Z" fill="#263238"/>
<path d="M195.822 144.768C195.878 144.979 195.911 145.196 195.921 145.414C195.921 145.901 196.04 146.517 196.12 147.282C196.279 148.902 196.468 151.256 196.676 154.167C197.084 159.98 197.541 168.018 197.998 176.89C198.455 185.763 198.862 193.781 199.17 199.633C199.329 202.494 199.458 204.829 199.558 206.518C199.558 207.293 199.627 207.909 199.657 208.396C199.683 208.614 199.683 208.834 199.657 209.052C199.594 208.842 199.557 208.625 199.548 208.406C199.548 207.919 199.438 207.303 199.349 206.538C199.2 204.919 199.001 202.564 198.802 199.653C198.385 193.84 197.938 185.803 197.481 176.92C197.024 168.038 196.607 160.029 196.309 154.187C196.15 151.326 196.02 148.991 195.921 147.302C195.921 146.527 195.842 145.911 195.822 145.424C195.796 145.206 195.796 144.986 195.822 144.768V144.768Z" fill="#263238"/>
<path d="M184.505 161.251C184.674 160.973 188.549 153.909 188.549 153.909L197.759 142.324C197.759 142.324 200.621 143.079 199.279 146.914C197.938 150.75 195.305 152.429 195.305 153.869C195.305 155.31 196.14 156.065 199.339 156.323C202.538 156.582 220.502 156.542 222.33 157.426C224.158 158.311 223.91 160.407 222.42 160.715C220.929 161.023 208.51 161.102 208.072 161.063C207.671 161.075 207.273 161.141 206.89 161.261C206.89 161.261 209.583 162.255 209.185 164.371C209.103 164.954 208.809 165.486 208.361 165.867C207.912 166.248 207.339 166.451 206.751 166.438C207.088 166.771 207.333 167.186 207.463 167.641C207.593 168.097 207.603 168.579 207.492 169.039C207.381 169.5 207.153 169.924 206.83 170.271C206.507 170.617 206.1 170.875 205.648 171.018C205.824 171.231 205.949 171.48 206.014 171.747C206.08 172.015 206.084 172.294 206.027 172.563C205.97 172.833 205.852 173.086 205.683 173.303C205.515 173.521 205.299 173.698 205.052 173.82C203.184 175.132 202.846 175.807 199.786 175.648C196.726 175.489 189.523 175.33 189.523 175.33L184.505 161.251Z" fill="#FFCAAE"/>
<path d="M199.041 238.163C198.846 238.314 198.636 238.444 198.415 238.551L196.577 239.545C195.782 239.992 194.788 240.538 193.596 241.055C192.404 241.571 191.102 242.277 189.622 242.863L187.247 243.857C186.423 244.184 185.538 244.473 184.634 244.8C182.836 245.476 180.849 246.032 178.782 246.658C169.732 249.181 160.353 250.32 150.962 250.037C148.796 249.927 146.74 249.858 144.832 249.629C143.838 249.52 142.954 249.46 142.07 249.331L139.526 248.954C137.907 248.745 136.466 248.407 135.194 248.149C133.923 247.89 132.83 247.642 131.955 247.394L129.968 246.847C129.729 246.795 129.496 246.719 129.273 246.619C129.517 246.644 129.76 246.687 129.998 246.748L132.045 247.205C132.939 247.414 134.032 247.662 135.304 247.871C136.575 248.079 138.016 248.407 139.636 248.596L142.169 248.934C143.044 249.053 143.968 249.103 144.921 249.202C146.829 249.411 148.896 249.46 151.022 249.56C155.688 249.642 160.355 249.416 164.991 248.884C169.62 248.296 174.204 247.396 178.713 246.191C180.779 245.595 182.756 245.049 184.555 244.393C185.449 244.075 186.333 243.807 187.168 243.479L189.542 242.535C191.063 241.969 192.394 241.323 193.576 240.796C194.759 240.27 195.762 239.803 196.557 239.376L198.445 238.442C198.637 238.336 198.836 238.243 199.041 238.163V238.163Z" fill="#263238"/>
<path d="M123.49 250.881C123.013 250.762 111.269 354.629 111.269 354.629L120.281 438.546H147.465L145.259 356.467L164.137 277.528L172.9 438.486H198.435L211.222 257.876L206.393 241.363L123.49 250.881Z" fill="#263238"/>
<path d="M209.295 260.648C205.537 258.921 202.424 256.048 200.402 252.441C200.531 252.352 202.091 254.607 204.555 256.872C207.019 259.138 209.374 260.509 209.295 260.648Z" fill="#455A64"/>
<path d="M163.412 275.79C162.916 273.428 162.584 271.034 162.418 268.626C162.076 266.233 161.904 263.82 161.901 261.403C162.406 263.763 162.738 266.158 162.895 268.566C163.246 270.958 163.419 273.372 163.412 275.79V275.79Z" fill="#455A64"/>
<path d="M167.694 260.817C167.895 260.778 168.103 260.802 168.29 260.886C168.822 261.082 169.27 261.454 169.562 261.939C169.798 262.294 169.949 262.698 170.004 263.12C170.059 263.542 170.017 263.971 169.88 264.374C169.655 264.852 169.299 265.257 168.853 265.54C168.407 265.824 167.89 265.974 167.361 265.974C166.833 265.974 166.315 265.824 165.869 265.54C165.423 265.257 165.067 264.852 164.842 264.374C164.702 263.973 164.655 263.545 164.705 263.123C164.755 262.701 164.901 262.297 165.131 261.939C165.418 261.454 165.858 261.076 166.382 260.866C166.76 260.737 166.979 260.777 166.979 260.797C166.332 261.052 165.789 261.517 165.439 262.118C165.268 262.436 165.166 262.785 165.138 263.145C165.111 263.504 165.159 263.865 165.28 264.205C165.48 264.583 165.779 264.9 166.146 265.121C166.513 265.342 166.933 265.459 167.361 265.459C167.789 265.459 168.209 265.342 168.576 265.121C168.943 264.9 169.242 264.583 169.443 264.205C169.559 263.865 169.602 263.504 169.57 263.146C169.537 262.789 169.43 262.442 169.254 262.128C168.898 261.527 168.348 261.064 167.694 260.817V260.817Z" fill="#455A64"/>
<path d="M130.237 255.322C130.325 256.212 130.278 257.11 130.097 257.985C129.756 260.121 129.04 262.18 127.981 264.066C126.908 265.932 125.569 267.632 124.007 269.113C123.398 269.763 122.706 270.331 121.95 270.802C122.505 270.116 123.105 269.469 123.749 268.865C125.211 267.334 126.488 265.637 127.554 263.807C128.58 261.966 129.32 259.979 129.75 257.916C130.068 256.326 130.157 255.312 130.237 255.322Z" fill="#455A64"/>
<path d="M194.143 284.116C193.814 284.17 193.478 284.17 193.149 284.116C192.261 284.035 191.387 283.845 190.546 283.549C187.712 282.607 185.312 280.676 183.787 278.108C182.261 275.541 181.712 272.51 182.24 269.57C182.386 268.692 182.636 267.835 182.985 267.017C183.094 266.708 183.251 266.42 183.452 266.162C183.089 267.297 182.804 268.456 182.597 269.63C182.189 272.476 182.767 275.376 184.237 277.847C185.707 280.319 187.979 282.212 190.675 283.212C191.807 283.599 192.966 283.901 194.143 284.116V284.116Z" fill="#455A64"/>
<path d="M194.143 372.553C194.043 372.652 190.397 369.085 185.995 364.604C181.594 360.123 178.106 356.358 178.216 356.258C178.325 356.159 181.962 359.736 186.363 364.207C190.765 368.678 194.252 372.454 194.143 372.553Z" fill="#455A64"/>
</svg>
